<?xml version="1.0" standalone="no"?>
<!DOCTYPE svg PUBLIC "-//W3C//DTD SVG 20010904//EN"
 "http://www.w3.org/TR/2001/REC-SVG-20010904/DTD/svg10.dtd">
<svg version="1.0" xmlns="http://www.w3.org/2000/svg"
 width="400.000000pt" height="400.000000pt" viewBox="0 0 400.000000 400.000000"
 preserveAspectRatio="xMidYMid meet">

<g transform="translate(0.000000,400.000000) scale(0.100000,-0.100000)"
fill="#000000" stroke="none">
<path d="M1810 3989 c-292 -28 -588 -125 -840 -277 -269 -162 -520 -413 -682
-682 -310 -514 -371 -1146 -166 -1710 101 -279 253 -517 467 -731 709 -709
1820 -784 2624 -177 236 178 466 463 593 735 286 609 248 1321 -99 1891 -160
262 -398 502 -660 664 -360 224 -808 328 -1237 287z m481 -105 c132 -21 274
-58 382 -100 660 -254 1121 -835 1218 -1534 17 -121 17 -377 0 -500 -116 -853
-785 -1523 -1641 -1641 -122 -17 -378 -17 -500 0 -697 96 -1280 559 -1535
1220 -135 350 -158 784 -60 1151 106 395 329 742 645 1000 279 228 655 382
1025 420 115 11 346 4 466 -16z"/>
<path d="M2692 3189 c-87 -17 -142 -74 -150 -157 l-4 -48 -77 14 c-154 28
-494 0 -776 -63 -209 -47 -456 -138 -516 -192 -15 -12 -17 -11 -23 11 -10 40
-63 93 -111 112 -39 14 -53 15 -107 4 -83 -16 -113 -33 -144 -80 -19 -29 -26
-52 -26 -87 1 -43 286 -1654 313 -1763 15 -62 50 -105 104 -126 39 -14 55 -15
110 -6 88 14 129 41 157 103 21 46 25 49 53 44 79 -14 215 -16 365 -5 91 7
201 14 245 16 44 2 103 10 130 18 28 8 106 30 175 49 183 52 356 115 409 151
l46 32 25 -30 c38 -46 100 -69 166 -60 65 8 131 39 157 75 42 59 42 67 -64
653 -55 303 -127 700 -159 883 -33 182 -63 340 -67 350 -14 40 -48 76 -87 94
-44 20 -76 22 -144 8z m-259 -279 c38 -6 91 -20 117 -31 55 -24 127 -95 159
-157 22 -44 86 -287 101 -387 5 -33 16 -89 24 -124 34 -146 50 -324 51 -546 0
-360 -14 -382 -310 -485 -90 -31 -116 -36 -111 -24 3 9 6 22 6 29 0 7 30 27
67 44 91 43 151 94 175 150 54 127 65 544 22 846 -11 74 -11 80 0 87 8 5 7 8
-1 8 -7 0 -13 12 -13 28 -1 15 -7 38 -15 52 -17 30 -19 44 -5 35 15 -9 12 6
-4 24 -8 9 -23 51 -35 94 -27 98 -42 127 -94 184 -87 94 -199 127 -432 126
-187 -1 -303 -17 -471 -69 -364 -110 -497 -246 -479 -489 16 -215 70 -463 155
-707 86 -249 170 -407 243 -456 37 -25 148 -52 214 -52 33 0 45 -5 54 -21 18
-34 -2 -39 -152 -39 -203 0 -251 20 -324 134 -115 180 -239 667 -285 1114 -14
135 -8 191 30 269 33 70 74 110 160 156 254 137 871 248 1153 207z m-92 -151
c73 -15 119 -40 160 -86 62 -68 63 -79 34 -262 -14 -90 -25 -172 -25 -182 0
-11 11 -31 25 -45 21 -21 34 -25 68 -22 l42 3 7 -50 c14 -110 20 -412 10 -516
-17 -156 -36 -207 -95 -246 -26 -17 -73 -41 -105 -52 -83 -30 -87 -34 -90 -78
l-3 -39 -74 -23 c-40 -12 -88 -24 -107 -26 -268 -33 -251 -34 -263 8 l-10 32
-103 6 c-140 9 -181 26 -227 95 -66 99 -156 323 -214 533 -48 174 -48 168 -7
185 42 17 70 65 61 105 -3 15 -39 81 -79 146 -71 116 -73 119 -64 163 13 74
51 126 125 175 226 150 667 233 934 176z"/>
<path d="M2336 2671 c-11 -12 -15 -27 -11 -44 l7 -24 -204 -5 c-187 -5 -213
-8 -321 -37 -65 -17 -163 -49 -218 -72 -55 -23 -101 -39 -102 -38 -1 2 -9 18
-17 34 -19 37 -53 44 -73 15 -12 -18 -13 -31 -2 -86 12 -63 25 -83 52 -84 7 0
47 16 90 36 99 45 257 100 348 122 53 12 124 16 295 17 124 0 231 4 239 9 10
7 12 23 7 69 -10 96 -49 134 -90 88z"/>
<path d="M2096 1406 c-71 -13 -107 -38 -105 -75 2 -38 37 -116 61 -134 21 -16
35 -18 82 -12 79 10 103 32 111 100 9 66 -5 107 -41 124 -14 6 -28 11 -32 10
-4 0 -38 -6 -76 -13z"/>
</g>
</svg>
